<?xml version="1.0" encoding="utf-8"?>
<!-- IMAGE MADE BY ANNA PODHAJSKA  -->
<svg version="1.1" id="Layer_1" xmlns="http://www.w3.org/2000/svg" xmlns:xlink="http://www.w3.org/1999/xlink" x="0px" y="0px"
	 viewBox="0 0 500 500" style="enable-background:new 0 0 500 500;" xml:space="preserve">
<style type="text/css">
	.st0{fill:#CE5A57;}
	.st1{fill:#E1B16A;}
	.st2{fill:#57A5A3;}
	.st3{fill:#444C5C;}
	.st4{fill:#444C5C;stroke:#FFFFFF;stroke-width:2;stroke-miterlimit:10;}
</style>
<g>
	<path class="st0" d="M115.5,14.6C82.3-9.5,36.6-3.1,13.3,28.8S-2,106.3,31.2,130.4L115.5,14.6z"/>
	<polygon class="st1" points="85.9,54.9 72.4,73.7 50,103.8 99.8,114.9 	"/>
	<polyline class="st2" points="496.1,494.1 162.6,0 75.6,0 102.6,150.9 500,500 	"/>
	<polyline class="st3" points="494.4,496.2 133,321.9 102.6,150.1 271.5,295.9 495,495.2 	"/>
	<polygon class="st1" points="259.4,410 385.7,498.1 413,456.9 133,321.9 	"/>
	<path class="st3" d="M340.8,467.2L340.8,467.2L340.8,467.2c1.2,0.8,46.3,29,44.8,29H284.1L340.8,467.2z"/>
	<ellipse class="st4" cx="123.5" cy="41.5" rx="23.7" ry="23.7"/>
</g>
</svg>
